<svg width="222" height="78" viewBox="0 0 222 78" fill="none" xmlns="http://www.w3.org/2000/svg">
<path d="M75.6006 33.0049H82.5439L80.5811 34.9971V50.2461L82.4268 51.7988H75.6006L77.6367 50.1143V34.8359L75.6006 33.0049ZM83.2031 33.8398L81.709 35.3193V50.2461L84.1699 53H76.5527L76.1865 52.6045H83.3057L81.2988 50.3926V35.1875L82.9541 33.5469L83.2031 33.8398ZM85.459 34.7627C87.7734 33.4248 90.2637 32.7559 92.9297 32.7559C95 32.7559 96.7041 33.2051 98.042 34.1035C99.3896 35.002 100.063 36.1445 100.063 37.5312C100.063 38.6641 99.624 39.6699 98.7451 40.5488C97.8662 41.418 96.665 42.0479 95.1416 42.4385C95.8154 44.2939 96.7285 46.1006 97.8809 47.8584C99.043 49.6162 100.205 50.9639 101.367 51.9014L101.147 51.9746C99.6924 52.4727 98.2666 53.1758 96.8701 54.084L96.6504 54.2305L96.5771 53.7617C95.9521 49.9824 95.0781 46.7793 93.9551 44.1523L93.8965 44.0059C93.2227 44.3184 92.3193 44.5674 91.1865 44.7529L91.0693 44.7676V50.2461L93.6475 53H86.0742L85.8398 52.6045H92.8125L90.6885 50.3486V44.4453L90.9961 44.4014C92.1094 44.2842 93.042 44.0645 93.7939 43.7422C93.7354 43.625 93.7012 43.5518 93.6914 43.5225L93.5449 43.0977C93.5352 43.0684 93.5107 43.0098 93.4717 42.9219C92.8662 43.0977 91.7236 43.2881 90.0439 43.4932L89.8828 43.5225V50.0557L91.5527 51.7988H85.0781L86.9824 50.0557V45.1338L86.8652 45.1484C86.2988 45.2754 85.7861 45.417 85.3271 45.5732L85.21 45.6172L85.0781 45.3242C85.5078 45.1582 85.8447 45.0459 86.0889 44.9873L86.8652 44.7969L86.9824 44.7676V44.0059C86.4062 44.0059 85.6885 44.1328 84.8291 44.3867L84.668 44.4453C84.6875 44.3086 84.7852 43.9912 84.9609 43.4932C84.9805 43.4541 85.0488 43.2344 85.166 42.834C85.1758 42.8047 85.1904 42.7607 85.21 42.7021C85.6494 42.7314 85.9912 42.7461 86.2354 42.7461C86.499 42.7461 86.7432 42.7314 86.9678 42.7021V35.4951C86.5186 35.2217 86.0547 34.9922 85.5762 34.8066L85.459 34.7627ZM89.8828 34.3818V42.2773C90.166 42.2773 90.4346 42.2529 90.6885 42.2041V34.9971C91.2256 34.8506 91.8701 34.7773 92.6221 34.7773C94.5264 34.7773 95.8203 35.4023 96.5039 36.6523C95.7812 36.0664 95.1465 35.666 94.5996 35.4512C94.0527 35.2266 93.3984 35.1143 92.6367 35.1143C92.041 35.1143 91.5186 35.1729 91.0693 35.29V42.2041L91.2305 42.1748C93.1543 41.8232 94.5801 41.2715 95.5078 40.5195C96.4453 39.7578 96.9141 38.7715 96.9141 37.5605C96.9141 36.4766 96.4941 35.583 95.6543 34.8799C94.8145 34.167 93.7549 33.8105 92.4756 33.8105C91.4502 33.8105 90.5859 34.001 89.8828 34.3818ZM96.958 43.1709C97.5732 45.1826 98.6621 47.1504 100.225 49.0742C101.201 50.2754 102.437 51.3545 103.931 52.3115C101.694 52.9072 99.5947 53.8154 97.6318 55.0361L97.5 55.124L97.207 54.8896C99.0723 53.6689 101.06 52.7705 103.169 52.1943C100.356 50.3193 98.1445 47.3213 96.5332 43.2002L96.4453 42.9512C99.4336 41.8184 100.928 40.0898 100.928 37.7656C100.928 36.8086 100.542 35.7637 99.7705 34.6309C100.757 35.5293 101.25 36.6719 101.25 38.0586C101.25 40.3047 99.8193 42.0088 96.958 43.1709ZM104.531 34.7627C106.846 33.4248 109.336 32.7559 112.002 32.7559C114.072 32.7559 115.776 33.2051 117.114 34.1035C118.462 35.002 119.136 36.1445 119.136 37.5312C119.136 38.6641 118.696 39.6699 117.817 40.5488C116.938 41.418 115.737 42.0479 114.214 42.4385C114.888 44.2939 115.801 46.1006 116.953 47.8584C118.115 49.6162 119.277 50.9639 120.439 51.9014L120.22 51.9746C118.765 52.4727 117.339 53.1758 115.942 54.084L115.723 54.2305L115.649 53.7617C115.024 49.9824 114.15 46.7793 113.027 44.1523L112.969 44.0059C112.295 44.3184 111.392 44.5674 110.259 44.7529L110.142 44.7676V50.2461L112.72 53H105.146L104.912 52.6045H111.885L109.761 50.3486V44.4453L110.068 44.4014C111.182 44.2842 112.114 44.0645 112.866 43.7422C112.808 43.625 112.773 43.5518 112.764 43.5225L112.617 43.0977C112.607 43.0684 112.583 43.0098 112.544 42.9219C111.938 43.0977 110.796 43.2881 109.116 43.4932L108.955 43.5225V50.0557L110.625 51.7988H104.15L106.055 50.0557V45.1338L105.938 45.1484C105.371 45.2754 104.858 45.417 104.399 45.5732L104.282 45.6172L104.15 45.3242C104.58 45.1582 104.917 45.0459 105.161 44.9873L105.938 44.7969L106.055 44.7676V44.0059C105.479 44.0059 104.761 44.1328 103.901 44.3867L103.74 44.4453C103.76 44.3086 103.857 43.9912 104.033 43.4932C104.053 43.4541 104.121 43.2344 104.238 42.834C104.248 42.8047 104.263 42.7607 104.282 42.7021C104.722 42.7314 105.063 42.7461 105.308 42.7461C105.571 42.7461 105.815 42.7314 106.04 42.7021V35.4951C105.591 35.2217 105.127 34.9922 104.648 34.8066L104.531 34.7627ZM108.955 34.3818V42.2773C109.238 42.2773 109.507 42.2529 109.761 42.2041V34.9971C110.298 34.8506 110.942 34.7773 111.694 34.7773C113.599 34.7773 114.893 35.4023 115.576 36.6523C114.854 36.0664 114.219 35.666 113.672 35.4512C113.125 35.2266 112.471 35.1143 111.709 35.1143C111.113 35.1143 110.591 35.1729 110.142 35.29V42.2041L110.303 42.1748C112.227 41.8232 113.652 41.2715 114.58 40.5195C115.518 39.7578 115.986 38.7715 115.986 37.5605C115.986 36.4766 115.566 35.583 114.727 34.8799C113.887 34.167 112.827 33.8105 111.548 33.8105C110.522 33.8105 109.658 34.001 108.955 34.3818ZM116.03 43.1709C116.646 45.1826 117.734 47.1504 119.297 49.0742C120.273 50.2754 121.509 51.3545 123.003 52.3115C120.767 52.9072 118.667 53.8154 116.704 55.0361L116.572 55.124L116.279 54.8896C118.145 53.6689 120.132 52.7705 122.241 52.1943C119.429 50.3193 117.217 47.3213 115.605 43.2002L115.518 42.9512C118.506 41.8184 120 40.0898 120 37.7656C120 36.8086 119.614 35.7637 118.843 34.6309C119.829 35.5293 120.322 36.6719 120.322 38.0586C120.322 40.3047 118.892 42.0088 116.03 43.1709ZM122.915 33.0049H129.858L127.896 34.9971V50.2461L129.741 51.7988H122.915L124.951 50.1143V34.8359L122.915 33.0049ZM130.518 33.8398L129.023 35.3193V50.2461L131.484 53H123.867L123.501 52.6045H130.62L128.613 50.3926V35.1875L130.269 33.5469L130.518 33.8398ZM138.794 41.6914L139.424 43.4199H132.1L131.484 41.6914H138.794ZM140.903 44.4746H133.052L132.729 44.0645H140.347L139.673 42.0576L140.142 42.3945L140.903 44.4746ZM157.852 33.0049C157.764 33.1709 157.705 33.2832 157.676 33.3418L156.68 35.0996C156.338 35.7246 156.021 36.5059 155.728 37.4434L155.698 37.5166L155.552 37.4141L155.508 37.2236C155.225 36.1104 154.819 35.3389 154.292 34.9092C153.774 34.4795 152.979 34.2646 151.904 34.2646C151.465 34.2646 151.025 34.2842 150.586 34.3232H150.41V50.2021L152.139 51.7988H145.444L147.495 50.085V35.5098L146.455 35.4951C145.449 35.4951 144.731 35.6953 144.302 36.0957C143.882 36.4863 143.633 37.1797 143.555 38.1758H143.174C143.281 37.0332 143.574 36.2373 144.053 35.7881C144.541 35.3389 145.342 35.1143 146.455 35.1143L147.334 35.1289H147.495V34.4111C146.997 34.3525 146.523 34.3232 146.074 34.3232C144.814 34.3232 143.906 34.582 143.35 35.0996C142.793 35.6074 142.485 36.4717 142.427 37.6924H142.251C141.831 36.335 141.182 34.8213 140.303 33.1514L140.215 33.0049H157.852ZM158.774 33.9277C158.101 34.7871 157.393 36.2129 156.65 38.2051L156.592 38.3516L156.27 38.0732L156.313 37.9414C157.036 35.9199 157.734 34.5137 158.408 33.7227L158.481 33.6348L158.774 33.9277ZM154.863 36.2129C154.111 35.7246 153.232 35.4805 152.227 35.4805C152.002 35.4805 151.768 35.4951 151.523 35.5244L151.582 50.2461L153.911 53H146.426L146.089 52.6045H153.105L151.143 50.3633V35.0996L151.934 35.085C152.881 35.085 153.55 35.1631 153.94 35.3193C154.341 35.4658 154.648 35.7637 154.863 36.2129ZM174.771 33.0049L174.536 33.2832C173.54 34.5039 172.749 35.9053 172.163 37.4873C172.065 37.2627 171.992 37.0967 171.943 36.9893C171.406 35.8174 170.83 35.0605 170.215 34.7188C169.6 34.377 168.496 34.2061 166.904 34.2061C166.172 34.2061 165.293 34.2305 164.268 34.2793V41.0176H165.205V35.0557C165.947 34.9873 166.655 34.9531 167.329 34.9531C168.569 34.9531 169.482 35.085 170.068 35.3486C170.654 35.6123 171.177 36.125 171.636 36.8867C171.499 36.7891 171.401 36.7158 171.343 36.667C170.552 36.042 169.98 35.6709 169.629 35.5537C169.277 35.4365 168.584 35.3779 167.549 35.3779C167.236 35.3779 166.68 35.3975 165.879 35.4365L165.571 35.4512V41.0176H168.267L170.156 38.4248V44.7383L168.267 42.292H164.268V50.5098H165.205V42.9805H168.384L168.765 43.3613H165.571V50.5098C167.563 50.5098 168.979 50.3682 169.819 50.085C170.659 49.8018 171.318 49.2451 171.797 48.415L172.573 47.082C172.603 47.0234 172.661 46.916 172.749 46.7598C173.003 47.834 173.315 48.6934 173.687 49.3379C174.067 49.9824 174.692 50.7344 175.562 51.5938H159.141L161.367 49.8945V43.3613C160.547 43.459 159.805 43.7129 159.141 44.123L158.936 43.8154C159.531 43.3857 160.342 43.1074 161.367 42.9805V42.292C161.201 42.2725 161.084 42.2627 161.016 42.2627C160.02 42.2627 159.111 42.6289 158.291 43.3613C158.74 41.7988 159.766 41.0176 161.367 41.0176V34.7627L159.141 33.0049H174.771ZM175.474 34.0303L175.371 34.1621C174.18 35.7637 173.384 37.1064 172.983 38.1904L172.734 37.8828C173.389 36.3691 174.233 34.9824 175.269 33.7227L175.474 34.0303ZM171.167 38.9082V45.3828L170.801 45.1924V38.7178L171.167 38.9082ZM177.231 51.6816L176.47 53H160.474L160.239 52.6045H176.279L176.777 51.6816C175.371 50.3828 174.38 48.9961 173.804 47.5215L174.272 47.6973C174.81 48.9473 175.718 50.1973 176.997 51.4473L177.231 51.6816ZM192.949 33.459L192.788 33.7373C191.909 35.2705 191.147 36.8037 190.503 38.3369L190.371 38.6738L190.181 38.5713C189.956 37.0869 189.434 35.9102 188.613 35.041C187.793 34.1719 186.802 33.7373 185.64 33.7373C184.399 33.7373 183.364 34.2793 182.534 35.3633C181.489 36.7109 180.967 38.9961 180.967 42.2188C180.967 44.9922 181.445 47.165 182.402 48.7373C183.369 50.3096 184.707 51.0957 186.416 51.0957C187.783 51.0957 188.872 50.6416 189.683 49.7334C190.503 48.8154 190.991 47.5068 191.147 45.8076C191.187 45.3975 191.353 45.1924 191.646 45.1924C192.026 45.1924 192.217 45.5098 192.217 46.1445C192.217 47.0918 192.002 48.0732 191.572 49.0889C190.664 51.2373 188.789 52.3115 185.947 52.3115C183.408 52.3115 181.392 51.4229 179.897 49.6455C178.403 47.8584 177.656 45.4463 177.656 42.4092C177.656 39.6064 178.433 37.2578 179.985 35.3633C181.538 33.4688 183.467 32.5215 185.771 32.5215C186.865 32.5215 188.11 32.79 189.507 33.3271C190.239 33.6104 190.845 33.752 191.323 33.752C191.841 33.752 192.305 33.6104 192.715 33.3271L192.949 33.459ZM188.701 35.9932C187.812 35.2803 186.973 34.9238 186.182 34.9238C183.652 34.9238 182.388 37.3359 182.388 42.1602C182.388 44.3574 182.681 46.1885 183.267 47.6533C183.853 49.1084 184.678 50.0508 185.742 50.4805V50.627C184.59 50.3926 183.667 49.5088 182.974 47.9756C182.29 46.4326 181.948 44.4844 181.948 42.1309C181.948 37.082 183.335 34.5576 186.108 34.5576C187.046 34.5576 187.91 34.9727 188.701 35.8027V35.9932ZM193.477 46.0566C193.32 48.4785 192.642 50.3242 191.44 51.5938C190.249 52.8535 188.579 53.4834 186.431 53.4834C184.8 53.4834 183.281 52.9805 181.875 51.9746V51.8574C183.125 52.6777 184.634 53.0879 186.401 53.0879C188.335 53.0879 189.912 52.4678 191.133 51.2275C191.729 50.6221 192.168 49.9434 192.451 49.1914C192.734 48.4395 192.925 47.4434 193.022 46.2031L193.052 45.8662L193.477 46.0566ZM194.019 34.1621L193.857 34.4404C192.793 36.2568 191.943 37.9121 191.309 39.4062L190.913 39.2158L191.074 38.8496C191.562 37.8242 191.992 36.9746 192.363 36.3008L193.535 34.2207L193.682 33.957L194.019 34.1621ZM195.366 33.0049H202.251L200.259 34.9531V41.2812C200.483 41.3203 200.747 41.3496 201.05 41.3691V35.0996L202.646 33.5176L202.939 33.7812L201.431 35.2754V41.3838L201.914 41.4277C202.666 41.4961 203.394 41.5303 204.097 41.5303C205.112 41.5303 205.986 41.4814 206.719 41.3838V34.6455L204.932 33.0049H211.699L209.678 34.9531V50.2168L211.45 51.7988H204.712L206.719 50.085V43.874C205.898 44.0693 205.054 44.167 204.185 44.167C203.364 44.167 202.515 44.123 201.636 44.0352L201.431 44.0205V50.2168L203.848 53H196.274L195.894 52.6045H203.042L201.05 50.4219V43.6836L201.475 43.7129C202.764 43.8105 203.696 43.8594 204.272 43.8594C205.21 43.8594 206.025 43.7324 206.719 43.4785V42.9512C205.801 43.0879 204.731 43.1562 203.511 43.1562C202.856 43.1562 202.378 43.1416 202.075 43.1123L200.596 42.9805C200.537 42.9707 200.425 42.9609 200.259 42.9512V50.2168L202.134 51.7988H195.366L197.329 50.085V43.6836C196.509 43.6836 195.854 44.0059 195.366 44.6504L195.059 44.5039C195.625 43.791 196.382 43.3955 197.329 43.3174V42.7754C196.235 42.7754 195.371 43.1904 194.736 44.0205L194.517 43.874C195.093 42.4678 196.03 41.6377 197.329 41.3838V34.792L195.366 33.0049ZM212.314 33.8252L210.82 35.2754V50.2168L213.252 53H205.649L205.283 52.6045H212.417L210.454 50.3926V35.1289L212.08 33.5176L212.314 33.8252ZM217.385 53.1705C216.86 53.1705 216.409 52.9822 216.032 52.6058C215.656 52.2294 215.468 51.7784 215.468 51.2528C215.468 50.7273 215.656 50.2763 216.032 49.8999C216.409 49.5234 216.86 49.3352 217.385 49.3352C217.911 49.3352 218.362 49.5234 218.738 49.8999C219.115 50.2763 219.303 50.7273 219.303 51.2528C219.303 51.6009 219.214 51.9205 219.037 52.2116C218.866 52.5028 218.635 52.7372 218.344 52.9148C218.06 53.0852 217.741 53.1705 217.385 53.1705Z" fill="black"/>
<ellipse cx="37.5" cy="39" rx="37.5" ry="39" fill="#34B14F"/>
<path d="M21.6006 30.0049H28.5439L26.5811 31.9971V47.2461L28.4268 48.7988H21.6006L23.6367 47.1143V31.8359L21.6006 30.0049ZM29.2031 30.8398L27.709 32.3193V47.2461L30.1699 50H22.5527L22.1865 49.6045H29.3057L27.2988 47.3926V32.1875L28.9541 30.5469L29.2031 30.8398ZM47.1035 30.0049C47.0156 30.1709 46.957 30.2832 46.9277 30.3418L45.9316 32.0996C45.5898 32.7246 45.2725 33.5059 44.9795 34.4434L44.9502 34.5166L44.8037 34.4141L44.7598 34.2236C44.4766 33.1104 44.0713 32.3389 43.5439 31.9092C43.0264 31.4795 42.2305 31.2646 41.1562 31.2646C40.7168 31.2646 40.2773 31.2842 39.8379 31.3232H39.6621V47.2021L41.3906 48.7988H34.6963L36.7471 47.085V32.5098L35.707 32.4951C34.7012 32.4951 33.9834 32.6953 33.5537 33.0957C33.1338 33.4863 32.8848 34.1797 32.8066 35.1758H32.4258C32.5332 34.0332 32.8262 33.2373 33.3047 32.7881C33.793 32.3389 34.5938 32.1143 35.707 32.1143L36.5859 32.1289H36.7471V31.4111C36.249 31.3525 35.7754 31.3232 35.3262 31.3232C34.0664 31.3232 33.1582 31.582 32.6016 32.0996C32.0449 32.6074 31.7373 33.4717 31.6787 34.6924H31.5029C31.083 33.335 30.4336 31.8213 29.5547 30.1514L29.4668 30.0049H47.1035ZM48.0264 30.9277C47.3525 31.7871 46.6445 33.2129 45.9023 35.2051L45.8438 35.3516L45.5215 35.0732L45.5654 34.9414C46.2881 32.9199 46.9863 31.5137 47.6602 30.7227L47.7334 30.6348L48.0264 30.9277ZM44.1152 33.2129C43.3633 32.7246 42.4844 32.4805 41.4785 32.4805C41.2539 32.4805 41.0195 32.4951 40.7754 32.5244L40.834 47.2461L43.1631 50H35.6777L35.3408 49.6045H42.3574L40.3945 47.3633V32.0996L41.1855 32.085C42.1328 32.085 42.8018 32.1631 43.1924 32.3193C43.5928 32.4658 43.9004 32.7637 44.1152 33.2129Z" fill="white"/>
</svg>
